<?xml version="1.0" standalone="no"?>
<!DOCTYPE svg PUBLIC "-//W3C//DTD SVG 20010904//EN"
 "http://www.w3.org/TR/2001/REC-SVG-20010904/DTD/svg10.dtd">
<svg version="1.0" xmlns="http://www.w3.org/2000/svg"
 width="260.000000pt" height="260.000000pt" viewBox="0 0 260.000000 260.000000"
 preserveAspectRatio="xMidYMid meet">
<metadata>
Created by potrace 1.14, written by Peter Selinger 2001-2017
</metadata>
<g transform="translate(0.000000,260.000000) scale(0.100000,-0.100000)"
fill="#000000" stroke="none">
<path d="M0 1300 l0 -1300 1300 0 1300 0 0 1300 0 1300 -1300 0 -1300 0 0
-1300z m1508 725 c85 -20 155 -58 217 -116 113 -107 152 -282 100 -456 -32
-109 -117 -194 -244 -242 -62 -23 -80 -25 -316 -30 l-250 -6 -3 -278 -2 -277
-95 0 -95 0 0 710 0 710 313 0 c240 0 326 -4 375 -15z"/>
<path d="M1010 1610 l0 -282 223 4 c207 3 225 5 272 26 97 45 145 114 153 223
9 126 -52 231 -161 280 -48 22 -68 24 -269 27 l-218 4 0 -282z"/>
</g>
</svg>
